<svg width="259" height="258" viewBox="0 0 259 258" fill="none" xmlns="http://www.w3.org/2000/svg">
<g clip-path="url(#clip0_2255_400)">
<mask id="mask0_2255_400" style="mask-type:luminance" maskUnits="userSpaceOnUse" x="0" y="0" width="259" height="258">
<path d="M258.324 0H0.324219V258H258.324V0Z" fill="white"/>
</mask>
<g mask="url(#mask0_2255_400)">
<path d="M0.324219 56C0.324219 25.0721 25.3963 0 56.3242 0H202.323C233.251 0 258.323 25.0721 258.323 56V115.562V201.999C258.323 232.927 233.251 258 202.323 258H56.3242C25.3963 258 0.324219 232.927 0.324219 202V56Z" fill="#1B5FF5"/>
<path fill-rule="evenodd" clip-rule="evenodd" d="M0 185V202.498C0 233.426 25.0721 258.498 56 258.498H202C232.928 258.498 258 233.426 258 202.498V185C258 215.928 232.928 241 202 241H56C25.0721 241 0 215.928 0 185Z" fill="white" fill-opacity="0.2"/>
<path fill-rule="evenodd" clip-rule="evenodd" d="M56.4727 0.375C25.5447 0.375 0.472656 25.4471 0.472656 56.375V57.8509C3.49709 29.7765 27.2698 7.91773 56.1478 7.91773H202.473C233.401 7.91773 258.473 32.9898 258.473 63.9178V56.375C258.473 25.4471 233.401 0.375 202.473 0.375H56.4727Z" fill="#497FF7"/>
</g>
<path d="M203.125 129.003C203.128 141.628 199.862 154.039 193.645 165.027C187.429 176.015 178.473 185.206 167.65 191.707C156.827 198.207 144.506 201.794 131.885 202.12C119.265 202.445 106.775 199.498 95.6312 193.564L71.6898 201.545C69.7076 202.206 67.5805 202.302 65.5468 201.822C63.5132 201.342 61.6533 200.305 60.1758 198.827C58.6983 197.35 57.6615 195.49 57.1815 193.456C56.7016 191.423 56.7975 189.296 57.4586 187.313L65.4391 163.372C60.2229 153.565 57.3095 142.699 56.92 131.598C56.5305 120.497 58.675 109.453 63.191 99.3042C67.7069 89.1557 74.4754 80.1694 82.9829 73.0274C91.4903 65.8853 101.513 60.7753 112.29 58.0851C123.067 55.395 134.316 55.1954 145.182 57.5015C156.047 59.8076 166.245 64.5589 175.001 71.3946C183.756 78.2303 190.839 86.9708 195.712 96.9526C200.585 106.934 203.12 117.895 203.125 129.003Z" fill="white"/>
</g>
<defs>
<clipPath id="clip0_2255_400">
<rect width="259" height="258" fill="white"/>
</clipPath>
</defs>
</svg>
