<svg width="259" height="258" viewBox="0 0 259 258" fill="none" xmlns="http://www.w3.org/2000/svg">
<g clip-path="url(#clip0_2217_368)">
<mask id="mask0_2217_368" style="mask-type:luminance" maskUnits="userSpaceOnUse" x="0" y="0" width="259" height="258">
<path d="M258.324 0H0.324219V258H258.324V0Z" fill="white"/>
</mask>
<g mask="url(#mask0_2217_368)">
<path d="M0.324219 56C0.324219 25.0721 25.3963 0 56.3242 0H202.323C233.251 0 258.323 25.0721 258.323 56V115.562V201.999C258.323 232.927 233.251 258 202.323 258H56.3242C25.3963 258 0.324219 232.927 0.324219 202V56Z" fill="#1B5FF5"/>
<path fill-rule="evenodd" clip-rule="evenodd" d="M0 185V202.498C0 233.426 25.0721 258.498 56 258.498H202C232.928 258.498 258 233.426 258 202.498V185C258 215.928 232.928 241 202 241H56C25.0721 241 0 215.928 0 185Z" fill="white" fill-opacity="0.2"/>
<path fill-rule="evenodd" clip-rule="evenodd" d="M56.4727 0.375C25.5447 0.375 0.472656 25.4471 0.472656 56.375V57.8509C3.49709 29.7765 27.2698 7.91773 56.1478 7.91773H202.473C233.401 7.91773 258.473 32.9898 258.473 63.9178V56.375C258.473 25.4471 233.401 0.375 202.473 0.375H56.4727Z" fill="#7E7E7E" fill-opacity="0.3"/>
</g>
<path d="M129.999 216.274C178.199 216.274 217.272 177.201 217.272 129.001C217.272 80.8018 178.199 41.7285 129.999 41.7285C81.7999 41.7285 42.7266 80.8018 42.7266 129.001C42.7266 177.201 81.7999 216.274 129.999 216.274Z" fill="url(#paint0_linear_2217_368)"/>
<path d="M129.999 41.7285C127.381 47.8376 124.763 83.8603 124.763 120.274C124.763 156.688 126.508 208.419 129.999 216.274C81.8003 216.274 42.7266 177.2 42.7266 129.001C42.7266 80.8023 81.8003 41.7285 129.999 41.7285Z" fill="url(#paint1_radial_2217_368)"/>
<path d="M104.435 95.8945H104.434C99.448 95.8945 95.4062 99.9363 95.4062 104.922V122.98C95.4062 127.966 99.448 132.008 104.434 132.008H104.435C109.421 132.008 113.463 127.966 113.463 122.98V104.922C113.463 99.9363 109.421 95.8945 104.435 95.8945Z" fill="#292929"/>
<path d="M148.357 95.8945H148.356C143.37 95.8945 139.328 99.9363 139.328 104.922V122.98C139.328 127.966 143.37 132.008 148.356 132.008H148.357C153.343 132.008 157.385 127.966 157.385 122.98V104.922C157.385 99.9363 153.343 95.8945 148.357 95.8945Z" fill="#292929"/>
<path fill-rule="evenodd" clip-rule="evenodd" d="M130.45 41.7285C130.178 41.7285 129.757 41.7355 129.581 41.7372C129.505 41.828 129.438 41.9256 129.38 42.0287C129.188 42.3586 129.014 42.8299 128.843 43.4181C128.504 44.6015 128.179 46.333 127.874 48.5463C127.261 52.9727 126.708 59.3733 126.245 67.2715C125.32 83.0731 124.746 104.897 124.746 129.001C124.746 153.106 125.319 174.929 126.247 190.729C126.708 198.629 127.26 205.028 127.874 209.456C128.181 211.669 128.504 213.401 128.843 214.583C129.012 215.173 129.19 215.644 129.38 215.974C129.439 216.081 129.509 216.181 129.59 216.272H130.476C130.351 216.154 130.297 216.085 130.145 215.914C130.063 215.822 130.045 215.783 129.968 215.651C129.758 215.256 129.594 214.838 129.48 214.405C129.152 213.263 128.776 211.579 128.471 209.374C127.86 204.97 127.308 198.587 126.848 190.694C125.923 174.908 125.348 153.097 125.348 129.001C125.348 104.905 125.921 83.094 126.846 67.3082C127.31 59.4135 127.858 53.0321 128.469 48.6283C128.776 46.4238 129.094 44.7255 129.422 43.5839C129.586 43.0114 129.747 42.596 129.9 42.329C129.977 42.1963 130.023 42.1404 130.075 42.0654C130.171 41.9242 130.3 41.8085 130.45 41.7285Z" fill="#0B4D1A" fill-opacity="0.5"/>
</g>
<defs>
<linearGradient id="paint0_linear_2217_368" x1="120.832" y1="-187.045" x2="129.999" y2="216.274" gradientUnits="userSpaceOnUse">
<stop offset="0.083" stop-color="#7C89FF"/>
<stop offset="0.889" stop-color="#2C7DFF"/>
</linearGradient>
<radialGradient id="paint1_radial_2217_368" cx="0" cy="0" r="1" gradientUnits="userSpaceOnUse" gradientTransform="translate(134.363 107.183) rotate(126.572) scale(109.091 109.091)">
<stop offset="0.372" stop-color="#F9F9F9"/>
<stop offset="1" stop-color="#D1DBE5"/>
</radialGradient>
<clipPath id="clip0_2217_368">
<rect width="259" height="258" fill="white"/>
</clipPath>
</defs>
</svg>
