<svg width="259" height="258" viewBox="0 0 259 258" fill="none" xmlns="http://www.w3.org/2000/svg">
<g clip-path="url(#clip0_2255_389)">
<mask id="mask0_2255_389" style="mask-type:luminance" maskUnits="userSpaceOnUse" x="0" y="0" width="259" height="258">
<path d="M258.324 0H0.324219V258H258.324V0Z" fill="white"/>
</mask>
<g mask="url(#mask0_2255_389)">
<path d="M0.324219 56C0.324219 25.0721 25.3963 0 56.3242 0H202.323C233.251 0 258.323 25.0721 258.323 56V115.562V201.999C258.323 232.927 233.251 258 202.323 258H56.3242C25.3963 258 0.324219 232.927 0.324219 202V56Z" fill="#F6F6F6"/>
<path fill-rule="evenodd" clip-rule="evenodd" d="M56.4727 0.375C25.5447 0.375 0.472656 25.4471 0.472656 56.375V57.8509C3.49709 29.7765 27.2698 7.91773 56.1478 7.91773H202.473C233.401 7.91773 258.473 32.9898 258.473 63.9178V56.375C258.473 25.4471 233.401 0.375 202.473 0.375H56.4727Z" fill="#D1D1D1"/>
<path fill-rule="evenodd" clip-rule="evenodd" d="M0 185V202.498C0 233.426 25.0721 258.498 56 258.498H202C232.928 258.498 258 233.426 258 202.498V185C258 215.928 232.928 241 202 241H56C25.0721 241 0 215.928 0 185Z" fill="#D1D1D1"/>
</g>
<g clip-path="url(#clip1_2255_389)">
<mask id="mask1_2255_389" style="mask-type:luminance" maskUnits="userSpaceOnUse" x="27" y="103" width="206" height="52">
<path d="M233 103H27V154.5H233V103Z" fill="white"/>
</mask>
<g mask="url(#mask1_2255_389)">
<path d="M177.257 122.285H108.793C91.6271 122.285 87.9732 123.612 78.9714 132.34H78.9779L56.1342 154.5H27L63.2487 118.526C76.7243 105.19 83.2206 103 106.197 103H196.955L177.257 122.285ZM174.316 125.366L156.259 143.423H109.545C100.984 143.423 99.0895 143.824 94.8409 148.073L88.414 154.5H61.3984L81.3709 134.527C89.2133 126.69 91.917 125.366 109.206 125.366H174.316ZM203.027 143.234C204.653 143.234 205.995 143.776 207.057 144.865C208.119 145.954 208.65 147.29 208.65 148.878C208.65 150.466 208.124 151.802 207.068 152.88C206.011 153.958 204.675 154.5 203.051 154.5C201.425 154.5 200.073 153.958 199 152.87C197.922 151.781 197.384 150.445 197.384 148.857C197.384 147.269 197.922 145.933 198.989 144.854C200.057 143.776 201.403 143.235 203.027 143.234ZM233 103L181.36 154.5H149.426L200.926 103H233ZM203.017 144.119C201.687 144.119 200.572 144.581 199.67 145.504C198.775 146.427 198.323 147.542 198.323 148.857C198.323 150.171 198.775 151.287 199.67 152.21C200.566 153.132 201.682 153.593 203.017 153.593C204.353 153.593 205.464 153.137 206.366 152.22C207.261 151.303 207.711 150.187 207.711 148.867C207.711 147.548 207.261 146.427 206.366 145.504C205.47 144.581 204.353 144.119 203.017 144.119ZM203.027 145.755C203.837 145.755 204.449 145.906 204.857 146.212C205.265 146.513 205.469 146.968 205.469 147.574C205.469 148.181 205.388 148.631 205.222 148.926C205.055 149.221 204.776 149.458 204.379 149.641L205.555 152.01H204.251L203.185 149.8H201.923L201.917 149.795V152.006H200.678V145.755H203.027ZM201.896 148.825H203.157C203.543 148.825 203.823 148.744 203.989 148.578C204.161 148.412 204.245 148.143 204.245 147.773C204.245 147.07 203.806 146.721 202.921 146.721H201.896V148.825Z" fill="#1B5FF5"/>
</g>
</g>
</g>
<defs>
<clipPath id="clip0_2255_389">
<rect width="259" height="258" fill="white"/>
</clipPath>
<clipPath id="clip1_2255_389">
<rect width="206" height="51.5" fill="white" transform="translate(27 103)"/>
</clipPath>
</defs>
</svg>
