<svg width="259" height="258" viewBox="0 0 259 258" fill="none" xmlns="http://www.w3.org/2000/svg">
<g clip-path="url(#clip0_2196_358)">
<mask id="mask0_2196_358" style="mask-type:luminance" maskUnits="userSpaceOnUse" x="0" y="0" width="259" height="258">
<path d="M258.324 0H0.324219V258H258.324V0Z" fill="white"/>
</mask>
<g mask="url(#mask0_2196_358)">
<path d="M0.324219 56C0.324219 25.0721 25.3963 0 56.3242 0H202.323C233.251 0 258.323 25.0721 258.323 56V115.562V201.999C258.323 232.927 233.251 258 202.323 258H56.3242C25.3963 258 0.324219 232.927 0.324219 202V56Z" fill="#FFFFFE"/>
<path d="M142.766 0H202.322C233.25 0 258.322 25.0721 258.322 56V115.562H166.766C153.511 115.562 142.766 104.817 142.766 91.562V0Z" fill="#287AFF"/>
<path d="M142.762 0L258.324 115.562H161.19C151.012 115.562 142.762 107.311 142.762 97.1338V0Z" fill="white"/>
<path d="M148.755 0.0078125L258.323 109.625V115.771L142.734 0.0078125H148.755Z" fill="#363AF5"/>
<path fill-rule="evenodd" clip-rule="evenodd" d="M0.472656 184.877V202.375C0.472656 233.303 25.5447 258.375 56.4726 258.375H202.473C233.401 258.375 258.473 233.303 258.473 202.375V184.877C258.473 215.805 233.401 240.877 202.473 240.877H56.4726C25.5447 240.877 0.472656 215.805 0.472656 184.877Z" fill="#CCCCCB"/>
<path fill-rule="evenodd" clip-rule="evenodd" d="M56.4727 0.375C25.5447 0.375 0.472656 25.4471 0.472656 56.375V57.8509C3.49709 29.7765 27.2698 7.91773 56.1478 7.91773H202.473C233.401 7.91773 258.473 32.9898 258.473 63.9178V56.375C258.473 25.4471 233.401 0.375 202.473 0.375H56.4727Z" fill="white" fill-opacity="0.3"/>
<path fill-rule="evenodd" clip-rule="evenodd" d="M142.352 0.0078125V97.2322C142.352 107.449 150.635 115.732 160.852 115.732H258.701V122.732H160.852C146.769 122.732 135.352 111.315 135.352 97.2322V0.0078125H142.352Z" fill="#CCCCCB"/>
</g>
</g>
<defs>
<clipPath id="clip0_2196_358">
<rect width="259" height="258" fill="white"/>
</clipPath>
</defs>
</svg>
