<svg width="259" height="258" viewBox="0 0 259 258" fill="none" xmlns="http://www.w3.org/2000/svg">
<g clip-path="url(#clip0_2252_310)">
<mask id="mask0_2252_310" style="mask-type:luminance" maskUnits="userSpaceOnUse" x="0" y="0" width="259" height="258">
<path d="M258.324 0H0.324219V258H258.324V0Z" fill="white"/>
</mask>
<g mask="url(#mask0_2252_310)">
<path d="M0.324219 56C0.324219 25.0721 25.3963 0 56.3242 0H202.323C233.251 0 258.323 25.0721 258.323 56V115.562V201.999C258.323 232.927 233.251 258 202.323 258H56.3242C25.3963 258 0.324219 232.927 0.324219 202V56Z" fill="#1B5FF5"/>
<path fill-rule="evenodd" clip-rule="evenodd" d="M0.472656 184.877V202.375C0.472656 233.303 25.5447 258.375 56.4726 258.375H202.473C233.401 258.375 258.473 233.303 258.473 202.375V184.877C258.473 215.805 233.401 240.877 202.473 240.877H56.4726C25.5447 240.877 0.472656 215.805 0.472656 184.877Z" fill="black" fill-opacity="0.09"/>
</g>
<path d="M171.397 69.4513C171.251 69.3264 171.098 69.2091 170.94 69.0998C170.778 68.9873 170.61 68.8818 170.441 68.7834C154.788 57.4684 135.289 52.8162 116.213 55.8452C97.1378 58.8741 80.0392 69.3374 68.6608 84.9446C57.2824 100.552 52.551 120.031 55.5024 139.119C58.4538 158.207 68.8475 175.348 84.4083 186.789C99.9691 198.231 119.429 203.042 138.529 200.168C157.628 197.294 174.811 186.97 186.316 171.456C197.821 155.942 202.711 136.501 199.915 117.39C197.119 98.2792 186.864 81.0544 171.397 69.4865V69.4513ZM128.999 145.874C125.661 145.874 122.399 144.884 119.623 143.03C116.848 141.176 114.685 138.54 113.408 135.457C112.131 132.373 111.797 128.98 112.448 125.707C113.099 122.433 114.706 119.427 117.066 117.067C119.426 114.707 122.433 113.099 125.707 112.448C128.98 111.797 132.373 112.131 135.456 113.409C138.54 114.686 141.176 116.849 143.03 119.624C144.884 122.399 145.874 125.661 145.874 128.999C145.874 133.475 144.096 137.767 140.931 140.931C137.766 144.096 133.474 145.874 128.999 145.874ZM190.874 128.999C190.874 130.736 190.796 132.458 190.656 134.16L157.124 128.24C156.934 121.306 154.178 114.688 149.389 109.67L168.922 81.7771C175.8 87.5737 181.329 94.8034 185.121 102.96C188.912 111.117 190.876 120.004 190.874 128.999Z" fill="#EEF6FF"/>
<path fill-rule="evenodd" clip-rule="evenodd" d="M0.472656 184.877V202.375C0.472656 233.303 25.5447 258.375 56.4726 258.375H202.473C233.401 258.375 258.473 233.303 258.473 202.375V184.877C258.473 215.805 233.401 240.877 202.473 240.877H56.4726C25.5447 240.877 0.472656 215.805 0.472656 184.877Z" fill="white" fill-opacity="0.16"/>
<path fill-rule="evenodd" clip-rule="evenodd" d="M56 0C25.072 0 0 25.0721 0 56V57.4759C3.02443 29.4015 26.7971 7.54273 55.6751 7.54273H202C232.928 7.54273 258 32.6148 258 63.5428V56C258 25.0721 232.928 0 202 0H56Z" fill="white" fill-opacity="0.3"/>
</g>
<defs>
<clipPath id="clip0_2252_310">
<rect width="259" height="258" fill="white"/>
</clipPath>
</defs>
</svg>
