<svg width="259" height="258" viewBox="0 0 259 258" fill="none" xmlns="http://www.w3.org/2000/svg">
<g clip-path="url(#clip0_2255_365)">
<mask id="mask0_2255_365" style="mask-type:luminance" maskUnits="userSpaceOnUse" x="0" y="0" width="259" height="258">
<path d="M258.324 0H0.324219V258H258.324V0Z" fill="white"/>
</mask>
<g mask="url(#mask0_2255_365)">
<path d="M0.324219 56C0.324219 25.0721 25.3963 0 56.3242 0H202.323C233.251 0 258.323 25.0721 258.323 56V115.562V201.999C258.323 232.927 233.251 258 202.323 258H56.3242C25.3963 258 0.324219 232.927 0.324219 202V56Z" fill="#F6F6F6"/>
<path fill-rule="evenodd" clip-rule="evenodd" d="M56.4727 0.375C25.5447 0.375 0.472656 25.4471 0.472656 56.375V57.8509C3.49709 29.7765 27.2698 7.91773 56.1478 7.91773H202.473C233.401 7.91773 258.473 32.9898 258.473 63.9178V56.375C258.473 25.4471 233.401 0.375 202.473 0.375H56.4727Z" fill="#D1D1D1"/>
<path fill-rule="evenodd" clip-rule="evenodd" d="M0 185V202.498C0 233.426 25.0721 258.498 56 258.498H202C232.928 258.498 258 233.426 258 202.498V185C258 215.928 232.928 241 202 241H56C25.0721 241 0 215.928 0 185Z" fill="#D1D1D1"/>
</g>
<path d="M77.5674 128.18L77.5674 102.864L78.498 101.857C87.3594 92.2756 94.4735 83.2563 99.875 74.7988L99.8828 74.7871C105.268 66.4263 109.437 57.7302 112.401 48.6953C115.377 39.6254 117.445 29.7377 118.588 19.0205L118.588 19.0176C119.739 8.2957 120.391 -4.05208 120.536 -18.0371L120.572 -21.501L150.644 -21.501L150.605 -17.9619C150.458 -4.56928 149.575 7.68986 147.944 18.8057L147.942 18.8154L147.941 18.8252C146.232 30.0465 143.553 40.6269 139.894 50.5586C136.227 60.5834 131.402 70.1181 125.425 79.1592C120.737 86.3064 115.211 93.4965 108.86 100.734L153.992 100.734L153.992 76.79L181.109 76.79L181.109 128.18L77.5674 128.18Z" fill="#287AFF" stroke="#1B5FF5" stroke-width="7"/>
<path d="M77.5674 128.18L77.5674 102.864L78.498 101.857C87.3594 92.2756 94.4735 83.2564 99.875 74.7989L99.8828 74.7871C105.268 66.4264 109.437 57.7302 112.401 48.6953C115.377 39.6254 117.445 29.7377 118.588 19.0205L118.588 19.0176C119.739 8.29573 120.391 -4.05205 120.536 -18.0371L120.572 -21.501L150.643 -21.501L150.605 -17.9619C150.458 -4.56926 149.575 7.68987 147.944 18.8057L147.942 18.8154L147.941 18.8252C146.232 30.0465 143.553 40.627 139.894 50.5586C136.227 60.5834 131.402 70.1182 125.425 79.1592C120.737 86.3065 115.211 93.4965 108.86 100.734L153.992 100.734L153.992 76.79L181.109 76.79L181.109 128.18L77.5674 128.18Z" fill="#287AFF" stroke="#1B5FF5" stroke-width="7"/>
<path d="M181.042 144.5V169.815L180.111 170.822C171.25 180.404 164.136 189.423 158.734 197.881L158.727 197.893C153.342 206.253 149.173 214.95 146.208 223.984C143.232 233.054 141.165 242.942 140.021 253.659V253.662C138.87 264.384 138.218 276.732 138.073 290.717L138.037 294.181H107.966L108.004 290.642C108.151 277.249 109.035 264.99 110.665 253.874L110.667 253.864L110.668 253.854C112.377 242.633 115.057 232.053 118.716 222.121C122.382 212.096 127.207 202.562 133.185 193.521C137.872 186.373 143.398 179.183 149.749 171.945H104.617V195.89H77.5V144.5H181.042Z" fill="#287AFF" stroke="#1B5FF5" stroke-width="7"/>
</g>
<defs>
<clipPath id="clip0_2255_365">
<rect width="259" height="258" fill="white"/>
</clipPath>
</defs>
</svg>
