<svg width="568" height="244" viewBox="0 0 568 244" fill="none" xmlns="http://www.w3.org/2000/svg">
<g clip-path="url(#clip0_2179_293)">
<path d="M557.284 10.7246H5.35938V238.637H557.284V10.7246Z" fill="#8E8B8B"/>
<path d="M568.003 0H16.0781V227.912H568.003V0Z" fill="#606060"/>
<path d="M0 244L16.0755 227.912V0L0 16.0879V244Z" fill="#C4C4C4"/>
<path d="M16.0755 227.912L0 244H551.925L568 227.912H16.0755Z" fill="#444444"/>
<path d="M284 5.36328H26.7921C23.8327 5.36328 21.4336 7.76422 21.4336 10.7259V217.187C21.4336 220.149 23.8327 222.55 26.7921 222.55H284C286.959 222.55 289.358 220.149 289.358 217.187V10.7259C289.358 7.76422 286.959 5.36328 284 5.36328Z" fill="#333333"/>
<path d="M61.623 177.637V122.67L55.5947 116.637L49.5664 122.67V177.637L55.5947 183.67L61.623 177.637Z" fill="#287AFF"/>
<path d="M61.623 106.582V51.615L55.5947 45.582L49.5664 51.615V106.582L55.5947 112.615L61.623 106.582Z" fill="#287AFF"/>
<path d="M118.554 108.594H63.6299L57.6016 114.627L63.6299 120.66H118.554L124.583 114.627L118.554 108.594Z" fill="#444444"/>
<path d="M118.554 37.5391H63.6299L57.6016 43.572L63.6299 49.605H118.554L124.583 43.572L118.554 37.5391Z" fill="#287AFF"/>
<path d="M118.554 179.648H63.6299L57.6016 185.681L63.6299 191.714H118.554L124.583 185.681L118.554 179.648Z" fill="#287AFF"/>
<path d="M132.623 177.637V122.67L126.595 116.637L120.566 122.67V177.637L126.595 183.67L132.623 177.637Z" fill="#287AFF"/>
<path d="M132.623 106.582V51.615L126.595 45.582L120.566 51.615V106.582L126.595 112.615L132.623 106.582Z" fill="#287AFF"/>
<path d="M141.998 186.351C141.998 183.389 139.599 180.988 136.64 180.988C133.68 180.988 131.281 183.389 131.281 186.351C131.281 189.313 133.68 191.714 136.64 191.714C139.599 191.714 141.998 189.313 141.998 186.351Z" fill="#444444"/>
<path d="M180.85 177.637V122.67L174.821 116.637L168.793 122.67V177.637L174.821 183.67L180.85 177.637Z" fill="#444444"/>
<path d="M180.85 106.582V51.615L174.821 45.582L168.793 51.615V106.582L174.821 112.615L180.85 106.582Z" fill="#444444"/>
<path d="M237.781 108.594H182.856L176.828 114.627L182.856 120.66H237.781L243.809 114.627L237.781 108.594Z" fill="#444444"/>
<path d="M237.781 37.5391H182.856L176.828 43.572L182.856 49.605H237.781L243.809 43.572L237.781 37.5391Z" fill="#287AFF"/>
<path d="M237.785 179.648H182.86L176.832 185.681L182.86 191.714H237.785L243.813 185.681L237.785 179.648Z" fill="#444444"/>
<path d="M251.85 177.637V122.67L245.821 116.637L239.793 122.67V177.637L245.821 183.67L251.85 177.637Z" fill="#287AFF"/>
<path d="M251.85 106.582V51.615L245.821 45.582L239.793 51.615V106.582L245.821 112.615L251.85 106.582Z" fill="#287AFF"/>
<path d="M261.225 186.351C261.225 183.389 258.826 180.988 255.866 180.988C252.907 180.988 250.508 183.389 250.508 186.351C250.508 189.313 252.907 191.714 255.866 191.714C258.826 191.714 261.225 189.313 261.225 186.351Z" fill="#333333"/>
<path d="M557.285 5.36328H300.077C297.118 5.36328 294.719 7.76422 294.719 10.7259V217.187C294.719 220.149 297.118 222.55 300.077 222.55H557.285C560.244 222.55 562.643 220.149 562.643 217.187V10.7259C562.643 7.76422 560.244 5.36328 557.285 5.36328Z" fill="#333333"/>
<path d="M334.908 177.637V122.67L328.88 116.637L322.852 122.67V177.637L328.88 183.67L334.908 177.637Z" fill="#444444"/>
<path d="M334.908 106.582V51.615L328.88 45.582L322.852 51.615V106.582L328.88 112.615L334.908 106.582Z" fill="#444444"/>
<path d="M391.84 108.594H336.915L330.887 114.627L336.915 120.66H391.84L397.868 114.627L391.84 108.594Z" fill="#444444"/>
<path d="M391.84 37.5391H336.915L330.887 43.572L336.915 49.605H391.84L397.868 43.572L391.84 37.5391Z" fill="#444444"/>
<path d="M391.84 179.648H336.915L330.887 185.681L336.915 191.714H391.84L397.868 185.681L391.84 179.648Z" fill="#444444"/>
<path d="M405.908 177.637V122.67L399.88 116.637L393.852 122.67V177.637L399.88 183.67L405.908 177.637Z" fill="#287AFF"/>
<path d="M405.908 106.582V51.615L399.88 45.582L393.852 51.615V106.582L399.88 112.615L405.908 106.582Z" fill="#287AFF"/>
<path d="M415.283 186.351C415.283 183.389 412.884 180.988 409.925 180.988C406.965 180.988 404.566 183.389 404.566 186.351C404.566 189.313 406.965 191.714 409.925 191.714C412.884 191.714 415.283 189.313 415.283 186.351Z" fill="#444444"/>
<path d="M454.135 177.637V122.67L448.106 116.637L442.078 122.67V177.637L448.106 183.67L454.135 177.637Z" fill="#444444"/>
<path d="M454.135 106.582V51.615L448.106 45.582L442.078 51.615V106.582L448.106 112.615L454.135 106.582Z" fill="#444444"/>
<path d="M511.066 108.594H456.142L450.113 114.627L456.142 120.66H511.066L517.094 114.627L511.066 108.594Z" fill="#444444"/>
<path d="M511.066 37.5391H456.142L450.113 43.572L456.142 49.605H511.066L517.094 43.572L511.066 37.5391Z" fill="#444444"/>
<path d="M511.066 179.648H456.142L450.113 185.681L456.142 191.714H511.066L517.094 185.681L511.066 179.648Z" fill="#444444"/>
<path d="M525.135 177.637V122.67L519.106 116.637L513.078 122.67V177.637L519.106 183.67L525.135 177.637Z" fill="#287AFF"/>
<path d="M525.135 106.582V51.615L519.106 45.582L513.078 51.615V106.582L519.106 112.615L525.135 106.582Z" fill="#287AFF"/>
<path d="M534.51 186.351C534.51 183.389 532.111 180.988 529.151 180.988C526.192 180.988 523.793 183.389 523.793 186.351C523.793 189.313 526.192 191.714 529.151 191.714C532.111 191.714 534.51 189.313 534.51 186.351Z" fill="#444444"/>
</g>
<defs>
<clipPath id="clip0_2179_293">
<rect width="568" height="244" fill="white"/>
</clipPath>
</defs>
</svg>
